<svg width="55" height="56" viewBox="0 0 55 56" fill="none" xmlns="http://www.w3.org/2000/svg">
<path d="M0.360007 25.4233C0.471121 25.4233 2.47116 26.4233 6.69347 28.09C6.58236 31.5345 6.47124 34.9791 6.47124 38.3125C6.36013 41.9792 6.36013 45.646 6.36013 49.3127C6.36013 49.7571 6.69347 50.2016 7.13793 50.3127C7.47127 50.4238 17.1381 53.0905 17.027 52.9794C17.1381 52.9794 27.0272 55.6462 26.9161 55.6462H27.0272H27.1383H27.2495H27.3606H27.4717C30.8051 54.7573 34.0274 53.9795 37.3608 52.9794C37.4719 52.9794 47.361 50.2016 47.2499 50.3127C47.6943 50.2016 48.0277 49.7571 48.0277 49.3127C47.9165 45.646 47.9165 41.9792 47.9165 38.3125C47.8054 34.868 47.8054 31.4234 47.6943 28.09C49.8055 27.2011 51.9166 26.3122 53.9167 25.4233C54.0278 25.4233 54.0278 25.3122 54.1389 25.3122C54.3611 25.09 54.4722 24.6455 54.1389 24.4233C51.6944 21.7566 49.2499 19.201 47.0276 16.8676C48.9166 19.5343 50.8055 22.0899 52.5833 24.5344C49.4721 25.5344 46.4721 26.5344 43.472 27.6456C40.3608 28.7567 37.3608 29.8678 34.3607 30.979C32.5829 28.8678 30.8051 26.7567 29.0273 24.6455C35.2496 22.0899 41.0275 19.5343 47.1388 16.7565C41.1386 13.9786 35.2496 11.423 29.1384 8.86741C30.9162 6.75626 32.694 4.6451 34.4718 2.53395C37.4719 3.64508 40.5831 4.86733 43.5831 5.86735C46.5832 6.97848 49.6944 7.9785 52.6944 8.97852C50.9166 11.423 49.0277 13.9786 47.1388 16.6453C49.4721 14.312 51.9166 11.7564 54.25 9.08964C54.25 9.08964 54.3611 8.97853 54.3611 8.86741C54.4722 8.53407 54.3611 8.20073 54.0278 7.97851C50.8055 6.53403 47.5832 5.20067 44.2498 3.97842C41.0275 2.64506 37.6941 1.42281 34.4718 0.0894531C34.0274 -0.132774 33.5829 0.0894532 33.2496 0.422793C31.3606 2.75617 29.3606 5.20067 27.4717 7.53405C25.5827 5.08956 23.5827 2.75617 21.6938 0.422793C21.3604 0.0894532 20.916 -0.132774 20.4715 0.0894531C17.2492 1.3117 13.9158 2.64506 10.6936 3.97842C6.9157 5.4229 3.69341 6.75626 0.471121 8.20073C0.360007 8.20073 0.248894 8.31185 0.248894 8.31185C0.0266672 8.53407 -0.0844462 8.97853 0.248894 9.20075C2.36005 11.5341 4.58232 13.8675 6.58236 15.9787C6.1379 16.4231 6.1379 17.2009 6.58236 17.5343C4.4712 19.6454 2.36005 21.9788 0.248894 24.3122C-0.19556 24.7566 0.0266672 25.3122 0.360007 25.4233ZM6.9157 17.8676L16.8048 21.4232C18.027 21.8677 19.3604 22.3121 20.5826 22.7566C22.1382 23.4233 23.8049 24.0899 25.3605 24.7566C23.5827 26.8678 21.8049 28.9789 20.0271 31.0901C17.027 29.979 13.9158 28.7567 10.9158 27.7567C7.91572 26.6456 4.80454 25.6455 1.80448 24.6455C3.47118 22.4232 5.02677 20.201 6.69347 17.8676C6.69347 17.7565 6.80458 17.8676 6.9157 17.8676ZM8.36017 48.5349C8.36017 45.4237 8.24906 38.9791 7.91572 28.6456C8.69351 28.9789 9.36019 29.3123 10.138 29.5345C13.3603 30.8679 16.6937 32.0901 19.916 33.4235C20.3604 33.6457 20.8049 33.4235 21.1382 33.0901C22.916 30.979 24.6938 28.7567 26.3605 26.6456C26.2494 28.4234 26.2494 30.2012 26.2494 31.979L26.0272 39.5347C25.9161 46.0904 25.9161 47.5349 25.805 53.3128L17.2492 50.9794L8.36017 48.5349ZM45.6943 48.5349L36.583 50.9794C33.694 51.7572 30.9162 52.535 28.0272 53.3128C28.0272 47.5349 27.9161 46.0904 27.805 39.5347L27.5828 31.979C27.4717 30.2012 27.4717 28.4234 27.4717 26.6456C29.2495 28.7567 30.9162 30.979 32.694 33.0901C33.0273 33.4235 33.4718 33.6457 33.9163 33.4235C37.1385 32.2012 40.4719 30.8679 43.6942 29.5345C44.472 29.2012 45.1387 28.9789 45.9165 28.6456C45.8054 39.2014 45.8054 45.3126 45.6943 48.5349ZM46.5832 16.8676C41.2497 18.4232 37.4719 19.6454 33.0273 21.201C31.0273 21.8677 29.0273 22.4232 27.0272 23.0899C23.916 21.8677 20.6938 20.6454 17.4715 19.4232L10.4713 16.8676L17.4715 14.312C20.6938 13.0897 23.8049 11.8675 27.0272 10.6452C28.9162 11.3119 30.8051 11.8675 32.694 12.5342C37.4719 14.0897 41.472 15.4231 46.6943 16.9787C46.6943 16.8676 46.5832 16.8676 46.5832 16.8676ZM1.69337 9.20075C4.80454 8.08962 7.80461 7.0896 10.9158 5.97846C14.027 4.86733 17.027 3.7562 20.0271 2.64506C21.8049 4.75622 23.5827 6.86737 25.3605 8.97852C23.8049 9.64521 22.2493 10.2008 20.6938 10.8675C19.3604 11.3119 18.1382 11.7564 16.8048 12.2008L6.9157 15.7564C6.80458 15.7564 6.69347 15.8676 6.69347 15.8676C4.91566 13.5342 3.36007 11.3119 1.69337 9.20075Z" fill="white"/>
</svg>
