<svg width="61" height="47" viewBox="0 0 61 47" fill="none" xmlns="http://www.w3.org/2000/svg">
<path d="M60.3774 1.20755C60.3774 0.603774 59.7736 0 59.1698 0H53.0113C51.9245 0 50.9585 0 49.8717 0L48.1811 0.120755L46.6113 0.362264C44.4377 0.845283 42.3849 1.44906 40.4528 2.53585C38.5208 3.62264 36.8302 4.83019 35.3811 6.4C35.3811 6.4 35.3811 6.4 35.2604 6.4C32.1208 9.41887 29.9472 13.4038 29.2226 17.7509L28.9811 19.3208L28.8604 21.0113V24.1509V29.9472C28.2566 30.7925 27.7736 31.6377 27.2906 32.483C27.4113 31.1547 27.4113 29.9472 27.5321 28.6189C27.5321 27.6528 27.6528 26.8075 27.6528 25.8415V24.3925L27.5321 22.9434C27.2906 21.1321 26.6868 19.2 25.8415 17.5094C24.9962 15.8189 23.9094 14.2491 22.5811 12.8C19.9245 10.0226 16.3019 8.09057 12.4377 7.36604L10.9887 7.12453L9.53962 7.00377C8.57358 7.00377 7.7283 7.00377 6.76226 7.00377C6.4 7.00377 0.845283 7.00377 1.20755 7.00377C0.603774 7.00377 0 7.60755 0 8.21132V13.766V16.5434L0.120755 17.9925L0.362264 19.4415C1.08679 23.3057 3.01887 26.8075 5.91698 29.4642C7.36604 30.7925 8.93585 31.8792 10.6264 32.7245C12.317 33.5698 14.2491 34.0528 16.0604 34.4151L17.5094 34.5358H18.9585C19.9245 34.5358 20.7698 34.4151 21.7358 34.4151C23.3057 34.2943 24.8755 34.2943 26.4453 34.1736C26.083 34.7774 25.8415 35.5019 25.4792 36.1057C24.0302 39.4868 23.1849 43.1094 23.1849 46.6113C24.1509 43.1094 25.4792 39.9698 27.1698 36.9509C28.1358 35.1396 29.3434 33.3283 30.5509 31.6377H36.2264H39.366L41.0566 31.517L42.6264 31.2755C44.8 30.7924 46.8528 30.1887 48.7849 29.1019C50.717 28.0151 52.4075 26.8075 53.8566 25.2377H53.9774C57.117 22.2189 59.2906 18.234 60.0151 13.8868L60.2566 12.317L60.3774 10.6264C60.3774 9.53962 60.3774 8.57358 60.3774 7.48679V1.20755ZM47.8189 27.0491C46.1283 28.0151 44.1962 28.4981 42.2642 28.8604L40.8151 29.1019L39.366 29.2226C38.4 29.2226 37.3132 29.2226 36.3472 29.2226H32.483C32.7245 28.9811 32.966 28.6189 33.2075 28.3774C35.3811 25.7208 37.7962 23.1849 40.2113 20.6491C42.6264 18.1132 45.1623 15.5774 47.5774 12.9208C44.5585 14.8528 41.6604 16.9057 38.883 19.2C36.2264 21.4943 33.6906 23.9094 31.3962 26.6868V24.1509C31.3962 23.1849 31.3962 22.0981 31.3962 21.1321L31.517 19.683L31.7585 18.234C32.1208 16.3019 32.6038 14.3698 33.5698 12.6792C34.4151 10.9887 35.6226 9.29811 36.9509 7.84906C38.4 6.52075 39.9698 5.43396 41.6604 4.46792C43.3509 3.50189 45.283 3.01887 47.2151 2.6566L48.6642 2.41509L50.1132 2.29434H53.1321H58.083V7.24528V10.2642L57.9623 11.834L57.7208 13.283C57.3585 15.2151 56.8755 17.1472 55.9094 18.8377C55.0642 20.5283 53.8566 22.2189 52.5283 23.6679C51.0792 25.117 49.5094 26.2038 47.8189 27.0491ZM21.7358 33.8113C20.7698 33.8113 19.9245 33.6906 18.9585 33.6906L17.6302 33.5698L16.3019 33.3283C12.8 32.6038 9.66038 30.7925 7.24528 28.2566C6.03774 26.9283 5.0717 25.6 4.22642 24.0302C3.50189 22.4604 3.01887 20.7698 2.6566 19.0792L2.41509 17.7509L2.29434 16.4226C2.29434 15.5774 2.29434 14.6113 2.29434 13.6453V9.29811H6.64151H9.41887H10.7472L12.0755 9.41887C13.766 9.66038 15.4566 10.1434 17.0264 10.9887C18.4755 12.0755 19.9245 13.0415 21.1321 14.2491C23.6679 16.6642 25.4792 19.8038 26.2038 23.3057L26.4453 24.634L26.566 25.9623C26.6868 26.8075 26.6868 27.7736 26.6868 28.7396C26.8075 30.1887 26.8075 31.517 26.9283 32.966C26.6868 33.4491 26.4453 33.8113 26.2038 34.2943C24.8755 33.9321 23.3057 33.9321 21.7358 33.8113Z" fill="white"/>
<path d="M16.3018 21.3736C14.8528 20.4076 13.4037 19.4416 11.7131 18.717C12.6792 20.1661 13.8867 21.4944 15.0943 22.7019C17.5094 25.2378 19.9245 27.4114 22.5811 29.8265C23.9094 30.9133 25.1169 32.1208 26.6867 33.2076C25.9622 31.517 25.1169 29.9472 24.0301 28.6189C21.8565 25.7208 19.3207 23.4265 16.3018 21.3736Z" fill="white"/>
</svg>
