<svg width="16" height="16" viewBox="0 0 16 16" fill="none" xmlns="http://www.w3.org/2000/svg">
<g clip-path="url(#clip0_1_2912)">
<path d="M8.00255 3.89209C5.73388 3.89209 3.89722 5.73076 3.89722 7.99742C3.89722 10.2661 5.73588 12.1028 8.00255 12.1028C10.2712 12.1028 12.1079 10.2641 12.1079 7.99742C12.1079 5.72876 10.2692 3.89209 8.00255 3.89209ZM8.00255 10.6621C6.52988 10.6621 5.33788 9.46942 5.33788 7.99742C5.33788 6.52542 6.53055 5.33276 8.00255 5.33276C9.47455 5.33276 10.6672 6.52542 10.6672 7.99742C10.6679 9.46942 9.47522 10.6621 8.00255 10.6621Z" fill="#E0E5EB"/>
<path d="M11.2986 0.0509902C9.82657 -0.0176765 6.18057 -0.0143431 4.70724 0.0509902C3.41257 0.111657 2.27057 0.424323 1.34991 1.34499C-0.188759 2.88366 0.00790737 4.95699 0.00790737 7.99766C0.00790737 11.1097 -0.165426 13.135 1.34991 14.6503C2.89457 16.1943 4.99791 15.9923 8.00257 15.9923C11.0852 15.9923 12.1492 15.9943 13.2392 15.5723C14.7212 14.997 15.8399 13.6723 15.9492 11.293C16.0186 9.82032 16.0146 6.17499 15.9492 4.70166C15.8172 1.89299 14.3099 0.189657 11.2986 0.0509902ZM13.6286 13.6323C12.6199 14.641 11.2206 14.551 7.98324 14.551C4.64991 14.551 3.31324 14.6003 2.33791 13.6223C1.21457 12.5043 1.41791 10.709 1.41791 7.98699C1.41791 4.30366 1.03991 1.65099 4.73657 1.46166C5.58591 1.43166 5.83591 1.42166 7.97391 1.42166L8.00391 1.44166C11.5566 1.44166 14.3439 1.06966 14.5112 4.76566C14.5492 5.60899 14.5579 5.86232 14.5579 7.99699C14.5572 11.2917 14.6199 12.6363 13.6286 13.6323Z" fill="#E0E5EB"/>
<path d="M12.2706 4.68942C12.8004 4.68942 13.2299 4.25991 13.2299 3.73009C13.2299 3.20026 12.8004 2.77075 12.2706 2.77075C11.7408 2.77075 11.3113 3.20026 11.3113 3.73009C11.3113 4.25991 11.7408 4.68942 12.2706 4.68942Z" fill="#E0E5EB"/>
</g>
<defs>
<clipPath id="clip0_1_2912">
<rect width="16" height="16" fill="white"/>
</clipPath>
</defs>
</svg>
