<svg width="16" height="16" viewBox="0 0 16 16" fill="none" xmlns="http://www.w3.org/2000/svg">
<path fill-rule="evenodd" clip-rule="evenodd" d="M9.89074 1.65695C10.4065 1.44325 10.9593 1.33325 11.5176 1.33325C12.0759 1.33325 12.6287 1.44325 13.1445 1.65695C13.6602 1.87066 14.1288 2.18389 14.5235 2.57875C14.9183 2.97339 15.2315 3.44192 15.4451 3.9576C15.6588 4.47337 15.7688 5.02618 15.7688 5.58447C15.7688 6.14276 15.6588 6.69557 15.4451 7.21133C15.2314 7.72706 14.9182 8.19563 14.5234 8.59028C14.5234 8.59031 14.5235 8.59025 14.5234 8.59028L8.63009 14.4836C8.40228 14.7114 8.03294 14.7114 7.80513 14.4836L1.9118 8.59028C1.11461 7.79309 0.666748 6.71187 0.666748 5.58447C0.666748 4.45707 1.11461 3.37585 1.9118 2.57866C2.70899 1.78147 3.79021 1.33361 4.91761 1.33361C6.04501 1.33361 7.12623 1.78147 7.92342 2.57866L8.21761 2.87284L8.5117 2.57875C8.90637 2.18389 9.37498 1.87066 9.89074 1.65695ZM13.6984 3.40352C13.412 3.11705 13.0721 2.8898 12.6979 2.73476C12.3237 2.57972 11.9226 2.49992 11.5176 2.49992C11.1126 2.49992 10.7115 2.57972 10.3373 2.73476C9.96315 2.8898 9.62319 3.11705 9.33685 3.40352L8.63009 4.11028C8.40228 4.33809 8.03294 4.33809 7.80513 4.11028L7.09846 3.40361C6.52006 2.82522 5.73559 2.50028 4.91761 2.50028C4.09963 2.50028 3.31515 2.82522 2.73675 3.40361C2.15836 3.98201 1.83341 4.76649 1.83341 5.58447C1.83341 6.40245 2.15836 7.18692 2.73675 7.76532L8.21761 13.2462L13.6985 7.76532C13.9849 7.47899 14.2123 7.13893 14.3673 6.76474C14.5224 6.39056 14.6022 5.9895 14.6022 5.58447C14.6022 5.17944 14.5224 4.77838 14.3673 4.40419C14.2123 4.03001 13.9848 3.68985 13.6984 3.40352Z" fill="#E0E5EB"/>
</svg>
