<svg width="16" height="16" viewBox="0 0 16 16" fill="none" xmlns="http://www.w3.org/2000/svg">
<path fill-rule="evenodd" clip-rule="evenodd" d="M7.33329 2.58341C4.70994 2.58341 2.58329 4.71006 2.58329 7.33341C2.58329 9.95677 4.70994 12.0834 7.33329 12.0834C9.95665 12.0834 12.0833 9.95677 12.0833 7.33341C12.0833 4.71006 9.95665 2.58341 7.33329 2.58341ZM1.41663 7.33341C1.41663 4.06573 4.06561 1.41675 7.33329 1.41675C10.601 1.41675 13.25 4.06573 13.25 7.33341C13.25 10.6011 10.601 13.2501 7.33329 13.2501C4.06561 13.2501 1.41663 10.6011 1.41663 7.33341Z" fill="#E0E5EB"/>
<path fill-rule="evenodd" clip-rule="evenodd" d="M10.6875 10.6876C10.9153 10.4598 11.2846 10.4598 11.5124 10.6876L14.4124 13.5876C14.6402 13.8154 14.6402 14.1848 14.4124 14.4126C14.1846 14.6404 13.8153 14.6404 13.5875 14.4126L10.6875 11.5126C10.4597 11.2848 10.4597 10.9154 10.6875 10.6876Z" fill="#E0E5EB"/>
</svg>
