<svg width="16" height="16" viewBox="0 0 16 16" fill="none" xmlns="http://www.w3.org/2000/svg">
<g clip-path="url(#clip0_1_2858)">
<path fill-rule="evenodd" clip-rule="evenodd" d="M5.99992 13.9166C5.9539 13.9166 5.91659 13.9539 5.91659 13.9999C5.91659 14.0459 5.9539 14.0833 5.99992 14.0833C6.04594 14.0833 6.08325 14.0459 6.08325 13.9999C6.08325 13.9539 6.04594 13.9166 5.99992 13.9166ZM4.74992 13.9999C4.74992 13.3096 5.30956 12.7499 5.99992 12.7499C6.69027 12.7499 7.24992 13.3096 7.24992 13.9999C7.24992 14.6903 6.69027 15.2499 5.99992 15.2499C5.30956 15.2499 4.74992 14.6903 4.74992 13.9999Z" fill="#E0E5EB"/>
<path fill-rule="evenodd" clip-rule="evenodd" d="M13.3333 13.9166C13.2872 13.9166 13.2499 13.9539 13.2499 13.9999C13.2499 14.0459 13.2872 14.0833 13.3333 14.0833C13.3793 14.0833 13.4166 14.0459 13.4166 13.9999C13.4166 13.9539 13.3793 13.9166 13.3333 13.9166ZM12.0833 13.9999C12.0833 13.3096 12.6429 12.7499 13.3333 12.7499C14.0236 12.7499 14.5833 13.3096 14.5833 13.9999C14.5833 14.6903 14.0236 15.2499 13.3333 15.2499C12.6429 15.2499 12.0833 14.6903 12.0833 13.9999Z" fill="#E0E5EB"/>
<path fill-rule="evenodd" clip-rule="evenodd" d="M0.083252 0.666585C0.083252 0.344419 0.344419 0.083252 0.666585 0.083252H3.33325C3.61128 0.083252 3.85068 0.279477 3.90524 0.552102L4.47857 3.41659H15.3333C15.5071 3.41659 15.6719 3.49413 15.7827 3.62808C15.8935 3.76202 15.9388 3.93842 15.9063 4.10919L14.8388 9.7069C14.7511 10.1481 14.5111 10.5444 14.1607 10.8265C13.8119 11.1073 13.3758 11.2571 12.9282 11.2499H6.45835C6.01073 11.2571 5.57465 11.1073 5.22583 10.8265C4.87556 10.5445 4.63558 10.1484 4.54786 9.7074L3.43371 4.14079C3.4295 4.12381 3.42603 4.10654 3.42335 4.08902L2.8551 1.24992H0.666585C0.344419 1.24992 0.083252 0.988751 0.083252 0.666585ZM4.71207 4.58325L5.69208 9.47961C5.72637 9.65226 5.82029 9.80734 5.95741 9.91772C6.09452 10.0281 6.26609 10.0867 6.44208 10.0834L6.45325 10.0833H12.9333L12.9444 10.0834C13.1204 10.0867 13.292 10.0281 13.4291 9.91772C13.5657 9.80775 13.6594 9.6534 13.694 9.48151L13.6944 9.47961L14.6282 4.58325H4.71207Z" fill="#E0E5EB"/>
</g>
<defs>
<clipPath id="clip0_1_2858">
<rect width="16" height="16" fill="white"/>
</clipPath>
</defs>
</svg>
