<svg width="16" height="16" viewBox="0 0 16 16" fill="none" xmlns="http://www.w3.org/2000/svg">
<path fill-rule="evenodd" clip-rule="evenodd" d="M7.98202 1.71369C8.09491 1.914 8.0796 2.16193 7.94293 2.34683C7.36159 3.13332 7.08185 4.10234 7.15458 5.07765C7.22731 6.05297 7.64769 6.96978 8.33925 7.66134C9.03082 8.35291 9.94763 8.77329 10.9229 8.84602C11.8983 8.91875 12.8673 8.639 13.6538 8.05766C14.0579 7.76887 14.6155 8.08493 14.5814 8.58044C14.4663 9.82557 13.999 11.0122 13.2342 12.0014C12.4693 12.9907 11.4385 13.7416 10.2625 14.1664C9.08641 14.5912 7.81368 14.6723 6.59322 14.4002C5.37276 14.128 4.25503 13.5139 3.37084 12.6298C2.48665 11.7456 1.87256 10.6278 1.60042 9.40738C1.32829 8.18691 1.40937 6.91418 1.83417 5.73812C2.25897 4.56205 3.00993 3.53129 3.99918 2.76644C4.98842 2.00159 6.17503 1.5343 7.42016 1.41923C7.64911 1.39807 7.86913 1.51338 7.98202 1.71369ZM13.1777 9.64799C12.4403 9.94316 11.6399 10.0694 10.8362 10.0095C9.58221 9.91594 8.40345 9.37546 7.51429 8.4863C6.62514 7.59715 6.08465 6.41839 5.99114 5.16441C5.93121 4.36071 6.05744 3.56032 6.3526 2.82292C5.76305 3.01442 5.20788 3.30662 4.71278 3.68941C3.89885 4.31872 3.28097 5.16681 2.93145 6.13446C2.58193 7.10211 2.51522 8.14929 2.73913 9.15347C2.96304 10.1577 3.4683 11.0773 4.1958 11.8048C4.9233 12.5323 5.84294 13.0376 6.84712 13.2615C7.8513 13.4854 8.89848 13.4187 9.86613 13.0691C10.8338 12.7196 11.6819 12.1017 12.3112 11.2878C12.694 10.7927 12.9862 10.2375 13.1777 9.64799Z" fill="#E0E5EB"/>
</svg>
