<svg width="48" height="58" viewBox="0 0 48 58" fill="none" xmlns="http://www.w3.org/2000/svg">
<path d="M47.5259 21.4644L47.3804 11.3054L47.2865 6.22581L47.2747 5.59086C47.2584 5.3611 47.2588 5.10947 47.2137 4.87375C47.154 4.39235 46.9941 3.92922 46.801 3.4893C46.3944 2.61402 45.7399 1.86402 44.9326 1.35358C44.124 0.843847 43.1756 0.57602 42.2334 0.584969L39.6859 0.646403C33.0107 0.822165 30.7504 0.850996 24.4474 1.08326C30.7504 1.31553 33.009 1.34435 39.6859 1.5202L42.2177 1.5888C42.9718 1.62126 43.6997 1.87226 44.3057 2.29882C44.9067 2.72978 45.391 3.31593 45.6711 3.99108C45.802 4.32978 45.9133 4.6795 45.9416 5.0425C45.9709 5.22396 45.959 5.39896 45.9679 5.59086L45.9562 6.22581L45.8623 11.3054L45.7437 19.5867C42.2676 19.1722 38.7916 18.936 35.3155 18.7788C31.5469 18.5938 27.7783 18.5442 24.0096 18.5239C20.241 18.5471 16.4724 18.5966 12.7038 18.7823C9.23308 18.9399 5.76242 19.1747 2.29168 19.5855L2.16071 10.43L2.07555 5.38021C2.08465 3.93234 3.02484 2.53085 4.38891 1.94512C5.07946 1.62701 5.77967 1.59037 6.66909 1.58824L9.20879 1.52268C15.8113 1.348 18.2237 1.31456 24.4474 1.08326C18.3003 0.854812 16.2531 0.830784 6.66909 0.578364C6.24438 0.569202 5.83905 0.546616 5.34452 0.572753C4.87293 0.620338 4.40318 0.717994 3.95624 0.889443C2.15837 1.56373 0.833438 3.36444 0.740611 5.32126L0.635356 10.43L0.489972 20.589L0.378467 30.748C0.376946 30.9357 0.329242 36.8225 0.33216 36.4625C0.342813 36.7041 0.337842 36.981 0.380029 37.2361C0.433935 37.7593 0.594376 38.2672 0.795086 38.752C1.21582 39.7187 1.9171 40.5539 2.79125 41.1455C3.66732 41.7357 4.71895 42.0683 5.77627 42.0829L7.66156 42.0906C6.74082 44.5334 5.87854 46.9934 5.04679 49.4624L3.64729 53.8119L3.48109 54.3634C3.38124 54.711 3.36092 55.0728 3.41867 55.425C3.5279 56.1283 3.98528 56.7869 4.61476 57.1298C5.57427 57.6786 6.83185 57.4853 7.5877 56.6455C7.73159 56.4818 7.75773 56.4388 7.82314 56.3583L7.99977 56.134C11.5183 51.5742 14.9253 46.9282 18.1212 42.1191L23.572 42.133L29.881 42.1161C33.0856 46.924 36.4955 51.573 40.0208 56.133L40.1974 56.3573C40.2628 56.4379 40.289 56.4809 40.4328 56.6444C41.1856 57.4809 42.4414 57.679 43.4039 57.1284C44.0329 56.7857 44.49 56.1276 44.5991 55.4247C44.6568 55.0728 44.6366 54.7112 44.5368 54.3639L44.3706 53.8123L42.968 49.4637C42.13 46.9943 41.2674 44.5323 40.3434 42.0882L41.3503 42.0855C41.7756 42.0823 42.1639 42.0955 42.7336 42.0488C43.2576 41.9814 43.7753 41.8566 44.2635 41.6527C46.2294 40.8549 47.617 38.8568 47.668 36.7493L47.6383 31.6234L47.5259 21.4644ZM6.16668 54.7179L5.87321 55.1039C5.86227 55.1199 5.85055 55.1311 5.83308 55.1388C5.79842 55.1569 5.75261 55.16 5.71902 55.1424C5.67584 55.124 5.65304 55.096 5.63884 55.0475C5.63301 55.0241 5.63358 54.9973 5.63649 54.9781L5.78947 54.4336L6.947 50.0147C7.59715 47.3872 8.21753 44.751 8.76916 42.0946C8.88865 42.0949 17.0427 42.1164 16.5298 42.1151C12.9221 46.1976 9.49267 50.4178 6.16668 54.7179ZM41.0768 50.0134L42.2314 54.4332L42.3844 54.9777C42.3873 54.9971 42.3879 55.0242 42.382 55.0477C42.3677 55.0967 42.3447 55.1251 42.3011 55.1438C42.2671 55.1617 42.2207 55.1585 42.1856 55.1403C42.1679 55.1324 42.1561 55.1212 42.1449 55.1049L41.8514 54.7188C38.5303 50.417 35.1026 46.1975 31.5017 42.1118C31.9101 42.1107 38.9454 42.0919 38.8105 42.0923L39.2626 42.0911C39.8115 44.7482 40.4326 47.3843 41.0768 50.0134ZM45.6045 31.6234L45.5545 36.656C45.5037 37.9531 44.6261 39.1572 43.4301 39.6195C42.8038 39.87 42.2897 39.8719 41.3503 39.8546C33.6213 39.834 30.0119 39.8243 23.572 39.8071C-1.80177 39.873 30.6819 39.7904 5.81135 39.8501C5.17243 39.8411 4.54771 39.6549 4.00915 39.3089C3.47499 38.959 3.03734 38.458 2.77151 37.8744C2.64821 37.5805 2.53756 37.2756 2.5034 36.9544C2.47115 36.7923 2.47854 36.6426 2.46384 36.4625C2.46256 36.3049 2.41455 30.3809 2.41753 30.748L2.30602 20.589L2.29459 19.7884C5.76433 20.1991 9.23408 20.4338 12.7038 20.5914C16.4724 20.777 20.241 20.8266 24.0096 20.8497C27.7783 20.8294 31.5469 20.7799 35.3155 20.5948C38.7906 20.4377 42.2657 20.2016 45.7407 19.7872L45.7167 21.4644L45.6045 31.6234Z" fill="white"/>
<path d="M30.9121 7.68357C27.2388 6.12698 20.7722 6.13933 17.1072 7.68357C20.7669 9.22561 27.2325 9.24284 30.9121 7.68357Z" fill="white"/>
<path d="M17.1072 25.8285C20.754 27.3651 27.2209 27.3927 30.9121 25.8285C27.2154 24.2618 20.7456 24.2953 17.1072 25.8285Z" fill="white"/>
</svg>
